<?xml version="1.0"?><svg width="640" height="480" xmlns="http://www.w3.org/2000/svg" clip-rule="evenodd">
 <title>Yellow Paint Drip</title>
 <g>
  <title>Layer 1</title>
  <metadata id="CorelCorpID_0Corel-Layer"/>
  <g filter="url(#svg_1_blur)" id="svg_1" transform="rotate(126.731 -98.423 -19.3737)">
   <metadata id="svg_2"/>
   <path id="svg_3" d="m-181.423996,-57.1973c5.057999,-12.069103 15.707993,-21.7981 30.572998,-21.7981c-2.447998,-9.089302 5.865005,-16.964203 14.257996,-14.992203c8.393997,1.972099 11.922005,15.397804 4.042007,20.056305c2.468994,1.485695 4.739998,3.263901 6.765991,5.284798c24.495003,-6.900299 34.5886,24.716999 9.693001,32.103001c-1.583,8.8228 -6.045998,15.504198 -12.023003,20.0376c4.000008,0.155499 8.090004,6.532889 6.255005,10.706739c136.53419,-90.606731 213.7043,-176.893833 224.940002,-162.913837c11.235001,13.979004 -66.6576,54.797997 -170.526093,136.395206c-11.979301,15.209002 -19.843002,23.926091 -25.979813,35.802051c0.62751,0.19895 1.082413,0.7832 1.082413,1.47251c0,0.85335 -0.696411,1.54538 -1.555,1.54538c-0.329796,0 -0.635712,-0.10235 -0.887001,-0.27622c-1.775002,3.73737 -3.409012,7.828179 -4.968102,12.53548c4.642502,2.1726 11.013802,6.0944 14.488403,9.764999c2.521088,-7.7211 13.071587,-8.0681 17.110199,-1.558599c4.038605,6.509501 -1.659401,14.4587 -9.209702,13.664301c3.825104,9.121098 4.085701,19.755299 1.051689,29.143097c2.897217,1.861504 1.379715,4.554703 -1.787186,4.5158c-7.527504,15.891899 -24.9608,22.912788 -41.593803,20.976303c-13.842995,27.572685 -41.197014,47.737694 -82.827003,48.124687c-59.505005,0.553009 -106.559998,-51.954201 -107.765991,-107.097389c-0.875,-39.996319 21.950989,-77.257298 58.794983,-92.12141c-11.020996,-13.001698 -1.959991,-34.158398 15.998001,-34.158398c14.344009,0 24.220016,14.29261 19.841019,27.351997c11.580002,-0.001999 23.225998,1.856201 34.228989,5.436302l0,-0.000401l0,0zm109.706497,28.251801c-11.864098,14.7658 -21.775902,29.028909 -29.1325,40.3291c6.581497,-11.58859 14.503799,-25.0824 21.464897,-34.2211c2.569504,-2.061201 5.124702,-4.0959 7.667603,-6.108zm-11.9767,9.575899c-7.509003,6.071 -15.119598,12.349751 -22.806801,18.83995c3.540001,8.00305 -2.826004,14.66985 -6.889,16.39585c1.928001,0.0644 3.821999,0.263299 5.671997,0.5866c5.960999,-9.455881 14.227699,-22.097421 24.023804,-35.822401zm82.599079,3.195801c3.71765,0.0681 6.25341,1.745299 7.78997,4.5266c1.2287,-4.2728 4.86185,-7.319099 9.64895,-7.319099c13.674101,0 15.7052,22.121149 1.203701,22.121149c-3.915801,0 -7.58269,-2.44989 -9.626661,-5.81073c-1.065,3.1131 -4.00727,5.21325 -8.16312,5.21325c-11.58992,0 -13.16362,-18.95687 -0.85284,-18.731169zm-8.04035,51.742098c14.03458,0 14.03458,21.373203 0,21.373203c-14.03423,0 -14.03423,-21.373203 0,-21.373203zm-32.563329,49.141701c14.034599,0 14.034599,21.373001 0,21.373001c-14.034599,0 -14.034599,-21.373001 0,-21.373001zm52.503799,-70.9189c0,5.496201 -8.2728,5.138401 -8.2728,-0.075199c0,-6.03779 8.2728,-4.9757 8.2728,0.075199zm-81.1483,-22.44885c4.197502,0 4.197502,6.39261 0,6.39261c-4.197502,0 -4.197502,-6.39261 0,-6.39261zm41.7092,-8.889251c0,6.648101 -10.251402,6.648101 -10.251402,0c0,-6.648499 10.251402,-6.648499 10.251402,0zm-29.146399,-68.019711c6.689899,0 6.689899,10.188011 0,10.188011c-6.689602,0 -6.689602,-10.188011 0,-10.188011zm-26.4753,-18.714287c5.464401,7.728989 3.511002,16.166901 -3.385902,18.797699c-6.896599,2.630898 -15.916298,-3.430603 -17.019302,-10.168602c-26.340996,-28.006096 23.651306,-45.423096 20.405205,-8.629097zm-72.320206,-5.057999c6.690002,0 6.690002,10.188286 0,10.188286c-6.690002,0 -6.690002,-10.188286 0,-10.188286z" fill="#3f3f3f"/>
  </g>
  <g transform="rotate(126.731, 283.871, 225.657)" id="Layer_x0020_1">
   <path d="m200.869019,187.833694c5.05896,-12.069092 15.707977,-21.798203 30.573975,-21.798203c-2.447998,-9.089203 5.86499,-16.964081 14.257996,-14.992096c8.394012,1.972015 11.921997,15.397797 4.041992,20.056213c2.469025,1.485794 4.740021,3.263992 6.766022,5.28479c24.494995,-6.900299 34.588501,24.717102 9.692993,32.102997c-1.582977,8.822906 -6.04599,15.504211 -12.024017,20.037598c4.001038,0.155609 8.091003,6.532898 6.256012,10.706787c136.534119,-90.606781 213.704193,-176.893784 224.940033,-162.913788c11.234985,13.979004 -66.657715,54.798004 -170.526215,136.395111c-11.979309,15.209 -19.843018,23.926086 -25.979828,35.802094c0.627502,0.198944 1.082428,0.783203 1.082428,1.472504c0,0.853363 -0.696411,1.54538 -1.555023,1.54538c-0.329773,0 -0.635681,-0.102356 -0.886993,-0.276215c-1.774994,3.737366 -3.409088,7.828125 -4.968384,12.535431c4.6427,2.172699 11.014099,6.094391 14.488678,9.765015c2.521118,-7.7211 13.071625,-8.068115 17.110107,-1.558624c4.038605,6.509521 -1.659302,14.45871 -9.209595,13.664307c3.825104,9.121094 4.085693,19.75531 1.051697,29.143097c2.897217,1.861603 1.3797,4.55481 -1.787201,4.515808c-7.527496,15.891907 -24.960693,22.912811 -41.593689,20.97641c-13.842987,27.572693 -41.196991,47.737701 -82.827011,48.124695c-59.50499,0.553009 -106.559982,-51.954193 -107.766006,-107.097504c-0.875,-39.996277 21.951019,-77.257294 58.795013,-92.121307c-11.020996,-13.001801 -1.960007,-34.158386 15.998001,-34.158386c14.343994,0 24.220001,14.292603 19.841003,27.35199c11.579987,-0.002106 23.225998,1.85611 34.228989,5.436203l-0.000977,-0.000305zm109.707275,28.251801c-11.863983,14.765701 -21.775787,29.028854 -29.132294,40.329056c6.58139,-11.588593 14.503693,-25.082458 21.464813,-34.221146c2.569397,-2.061203 5.124573,-4.095901 7.667603,-6.10791l-0.000122,0zm-11.976593,9.575912c-7.509003,6.070892 -15.11969,12.349701 -22.806702,18.839905c3.540009,8.003052 -2.826996,14.6698 -6.889008,16.395782c1.928009,0.064392 3.822021,0.263306 5.671997,0.5867c5.960022,-9.455933 14.2276,-22.097473 24.023712,-35.822388zm82.59906,3.195694c3.717651,0.068192 6.253418,1.745407 7.789978,4.526703c1.228699,-4.272812 4.861816,-7.319199 9.648865,-7.319199c13.674194,0 15.7052,22.121185 1.203796,22.121185c-3.915802,0 -7.582703,-2.44989 -9.626678,-5.81073c-1.065002,3.113098 -4.007263,5.213257 -8.163116,5.213257c-11.589905,0 -13.163696,-18.956924 -0.852844,-18.731216zm-8.040375,51.742081c14.034607,0 14.034607,21.37323 0,21.37323c-14.03418,0 -14.03418,-21.37323 0,-21.37323zm-32.563293,49.141815c14.034607,0 14.034607,21.373016 0,21.373016c-14.034607,0 -14.034607,-21.373016 0,-21.373016zm52.503845,-70.918915c0,5.496216 -8.272858,5.138306 -8.272858,-0.075256c0,-6.037781 8.272858,-4.975708 8.272858,0.075256zm-81.148346,-22.448883c4.19751,0 4.19751,6.392609 0,6.392609c-4.197479,0 -4.197479,-6.392609 0,-6.392609zm41.709198,-8.889297c0,6.648209 -10.251404,6.648209 -10.251404,0c0,-6.648499 10.251404,-6.648499 10.251404,0zm-29.146393,-68.019608c6.689911,0 6.689911,10.187897 0,10.187897c-6.689606,0 -6.689606,-10.187897 0,-10.187897zm-26.475311,-18.714294c5.464325,7.729004 3.511017,16.166809 -3.385895,18.797699c-6.896576,2.630798 -15.916199,-3.430695 -17.020172,-10.16861c-26.340027,-28.006088 23.6521,-45.423096 20.406067,-8.629089zm-72.321106,-5.057999c6.690002,0 6.690002,10.188004 0,10.188004c-6.688965,0 -6.688965,-10.188004 0,-10.188004z" fill="#ffffaa" id="Blood_x0020_Stain"/>
  </g>
 </g>
 <defs>
  <filter id="svg_1_blur">
   <feGaussianBlur stdDeviation="0.4"/>
  </filter>
 </defs>
</svg>