<?xml version="1.0"?><svg width="112" height="76" xmlns="http://www.w3.org/2000/svg">
 <title>Gray Quotation Marks</title>
 <metadata id="metadata6">image/svg+xmlCzech right quotation mark2007-08-27Petr Kadlec &lt;http://cs.wikipedia.org/wiki/User:Mormegil&gt;</metadata>
 <g>
  <title>Layer 1</title>
  <g id="layer1">
   <path d="m37.421871,0.43732l0,5.76562c-8.250042,4.31269 -14.156281,8.812691 -17.718752,13.5c-3.562519,4.687691 -5.343769,9.79706 -5.343749,15.328131c-0.00002,3.281368 0.46873,5.531368 1.40625,6.75c0.84373,1.312618 1.87498,1.968868 3.093749,1.96875c1.218721,0.000118 2.85935,-0.351379 4.921881,-1.054691c2.06246,-0.702938 3.93746,-1.054501 5.625,-1.054688c3.843712,0.000179 7.195259,1.42981 10.054691,4.289059c2.859318,2.859501 4.288998,6.351688 4.289059,10.47657c-0.000061,4.500118 -1.734428,8.367306 -5.203129,11.601559c-3.468792,3.234497 -7.781292,4.851692 -12.937502,4.851563c-6.281269,0.00013 -11.953149,-2.71862 -17.015619,-8.15625c-5.06251,-5.43737 -7.59376,-12.140503 -7.59375,-20.109371c-0.00001,-9.374821 3.11717,-18.11701 9.35156,-26.226561c6.234351,-8.1092 15.257781,-14.08576 27.070312,-17.92969l0,0zm67.078129,0.42187l0,5.34375c-9.468857,5.43769 -15.703217,10.312691 -18.703117,14.625c-3.000099,4.312691 -4.500099,9.375191 -4.5,15.187502c-0.000099,2.625187 0.515541,4.593937 1.546867,5.90625c1.031174,1.312618 2.109283,1.968868 3.234383,1.96875c1.031151,0.000118 2.578018,-0.374882 4.640617,-1.125c2.062401,-0.749813 4.124893,-1.124813 6.1875,-1.125c3.843643,0.000187 7.195213,1.382999 10.054703,4.148438c2.859238,2.765751 4.28894,6.164192 4.289047,10.195313c-0.000107,4.59388 -1.80481,8.578247 -5.414047,11.953125c-3.609489,3.375122 -8.039169,5.062622 -13.28907,5.0625c-6.187599,0.000122 -11.765709,-2.671745 -16.734383,-8.015625c-4.968826,-5.34362 -7.453201,-11.99987 -7.453117,-19.96875c-0.000084,-9.843563 3.140541,-18.820131 9.421867,-26.929682c6.281174,-8.1092 15.187401,-13.85138 26.71875,-17.22657l0,0z" id="text2159" stroke-width="1px" fill="#b2b2b2"/>
  </g>
 </g>
</svg>